<?xml version="1.0" encoding="utf-8"?>
<!-- Generator: Adobe Illustrator 26.0.1, SVG Export Plug-In . SVG Version: 6.00 Build 0)  -->
<svg version="1.1" id="Layer_1" xmlns="http://www.w3.org/2000/svg" xmlns:xlink="http://www.w3.org/1999/xlink" x="0px" y="0px"
	 viewBox="0 0 481.9 173.9" style="enable-background:new 0 0 481.9 173.9;" xml:space="preserve">
<g>
	<rect x="262" y="6.4" width="12.7" height="113.2"/>
	<rect x="373.8" y="43.8" width="12.7" height="75.9"/>
	<path d="M214,45.2c-20.6,0-37.2,15.6-37.2,37.4v80h12.7v-52.7c6.4,5.9,15.3,9.8,25.4,9.8c22.3,0,36.4-16.7,36.4-37.2
		S234.6,45.2,214,45.2z M214,107.3c-13.6,0-24.6-9.5-24.6-24.8c0-13.6,11-24.8,24.6-24.8c13.6,0,24.6,11.2,24.6,24.8
		S229,107.3,214,107.3z"/>
	<path d="M322.5,45.2c-20.6,0-37.2,16.7-37.2,37.2s15.8,37.2,36.4,37.2c10.1,0,19.1-3.9,25.5-9.8v9.7h12.7v-37
		C359.8,60.5,343.1,45.2,322.5,45.2z M322.5,107.3c-13.6,0-24.6-11.2-24.6-24.8s11-24.8,24.6-24.8c13.6,0,24.6,11.2,24.6,24.8
		C347.2,97.9,336.1,107.3,322.5,107.3z"/>
	<path d="M437.7,45.2c-20.6,0-37.2,15.3-37.2,37.2v37.2h12.6V82.5c0-14.6,11-24.9,24.6-24.9s24.6,10.6,24.6,24.9v37.2H475V82.5
		C475,60.8,458.3,45.2,437.7,45.2z"/>
	<circle cx="380.1" cy="15.6" r="8.7"/>
	<path d="M151.2,51.6c-5.9-3.9-12.7-6.1-20.3-6.1c-20.5,0-36.8,16.5-36.8,37.1c0,12.7,6.5,24.7,17.2,31.5c11.9,7.5,28,7.1,40.3,2.5
		v-13.3c-4.1,3-10.6,4.7-16.8,4.7c-3.1,0-5.5-0.1-8.9-1c-3.5-0.9-6.1-2.2-8.7-3.9c-5.7-3.7-9.8-9.6-10.2-16.2h58.9
		c0.4-1.7,0.5-3.6,0.5-5.4C166.4,68.6,160.7,58.2,151.2,51.6z M108.4,74.8c1.6-9.8,11.8-17.2,22.5-17.2c11.5,0,20.3,6.8,22.4,17.2
		H108.4z"/>
	<path d="M60.8,47.7c-14-5.2-29.6-2.3-39.8,8.3V6.4H8.4V118h12.7V78.8c0.4-2.4,1.1-4.7,2.2-6.9c4-8.5,12.6-14.4,22.7-14.4
		c13.8,0,25.1,10.4,25.2,24.7c0,4-1,8.4-2.9,12c-1.9,3.7-4.7,6.6-8,8.7c-4,2.7-8.9,4.2-14.2,4.2c-4.8,0-9.3-1.3-13.1-3.7
		c0,1.8,0,13.5,0,13.5c7.1,2.4,13.9,2.8,20.9,1.7c16.2-2.7,28.8-15.9,30.2-32.7C85.7,68.2,75.3,53.1,60.8,47.7z"/>
</g>
</svg>
